<svg height="291" viewBox="0 0 291 291" width="291" xmlns="http://www.w3.org/2000/svg"><g fill-rule="evenodd"><path d="m228.03 133.47c-.74039.14836-1.4808 1.7788-1.4808 2.6676-.14821 5.9271-.2967 21.636-.2967 32.305 0 .29669.44368.88871.88871.88871 2.2225.1482 7.5576.2967 12.151.2967 6.3722 0 10.077-.88872 12.152-1.7774 5.3337-2.6675 7.8529-8.4477 7.8529-14.82 0-14.373-10.077-19.857-25.044-19.857-1.0371-.14695-3.9999-.14695-6.2238.2967zm38.233 66.24c0-14.67-10.819-22.821-30.379-22.821-.88871 0-7.1125-.1482-8.5947.14821-.44505.14839-1.0371.44507-1.0371.89014 0 10.52-.14839 27.266.2967 33.785.29532 2.8159 2.3709 6.8172 4.8901 8.0027 2.6662 1.4821 8.743 1.7775 12.891 1.7775 11.707 0 21.932-6.5191 21.932-21.783zm-68.462-74.389c1.4807 0 5.9271.44367 17.338.44367 10.817 0 19.412-.29532 29.934-.29532 12.891 0 30.674 4.5934 30.674 23.857 0 9.4848-6.6689 17.042-15.412 20.747-.44368.14839-.44368.44368 0 .59201 12.448 3.1126 23.415 10.819 23.415 25.34 0 14.226-8.8914 23.265-21.784 28.897-7.8543 3.4079-17.634 4.5933-27.563 4.5933-7.5576 0-27.858-.88871-39.12-.59202-1.1854-.44507 1.0371-5.7802 2.0741-6.6689 2.6676-.1482 4.7417-.29669 7.5576-1.1854 4.0013-1.0371 4.445-2.2225 5.0384-8.298.29672-5.1867.29672-23.563.29672-36.603 0-17.931.14839-30.082 0-36.009-.14821-4.5934-1.7788-6.0755-5.0384-6.9656-2.5192-.44367-6.6689-1.0371-10.077-1.4807-.74177-.74176 1.7774-5.7802 2.6675-6.3722zm-85.504 92.172c3.5577 2.8145 10.522 3.9999 16.746 3.9999 8.0026 0 16.004-1.4807 23.71-8.4463 7.8543-7.1126 13.336-18.078 13.336-35.564 0-16.746-6.3722-30.379-19.412-38.38-7.4092-4.5947-16.894-6.5205-27.86-6.5205-3.2596 0-6.3722.14837-8.298 1.0371-.44505.2967-1.4821 1.6305-1.4821 2.3708-.29671 2.9642-.29671 25.784-.29671 39.122 0 13.781 0 33.045.29671 35.267 0 2.2239 1.0371 5.6318 3.2596 7.1139zm-33.638-92.172c2.8159 0 13.633.44367 18.82.44367 9.3364 0 16.004-.44367 33.638-.44367 14.818 0 27.266 4.0013 36.158 11.558 10.817 9.3364 16.449 22.229 16.449 37.936 0 22.376-10.225 35.269-20.45 42.678-10.224 7.5576-23.562 12.003-42.528 12.003-10.077 0-27.414-.2967-41.789-.44507h-.14838c-.74036-1.3324 1.1854-6.5191 2.3709-6.6675 3.853-.44505 4.89-.59341 6.8172-1.3338 3.1112-1.1854 3.7046-2.8159 4.1497-8.298.44367-10.225.29532-22.524.29532-36.454 0-9.9285.14838-29.342-.14838-35.565-.44367-5.1854-2.6662-6.5191-7.1126-7.4092-2.2225-.44367-5.1867-1.0371-9.335-1.4807-.59341-1.0385 2.0741-5.6318 2.8145-6.5205z" fill="#8f88fe"/><path d="m189.01 89.209c-2.3019-.27655-3.9595-.6444-5.9857-1.5653-.27569-.18437-.73659-1.1044-.73659-1.4732-.18437-3.2229-.18437-12.431-.18437-18.6 0-4.9726-.82788-9.2999-2.9463-12.338-2.4863-3.4994-6.077-5.5248-10.681-5.5248-4.0516 0-9.4843 2.7628-13.996 6.6301-.0922.09131-.82876.73658-.73658-.27654 0-1.0131.18438-3.0385.27655-4.4195.0922-1.2897-.64439-1.9341-.64439-1.9341-2.9472 1.4732-11.234 3.4072-14.272 3.6829-2.2097.4609-2.7619 2.5785-.46003 3.315h.0922c2.4854.73658 4.1429 1.5653 5.4317 2.3941.92097.73658.82876 1.7497.82876 2.5785.0922 6.9058.0922 17.494-.1835 23.296-.0922 2.3019-.73656 3.1298-2.3941 3.4985l.1835-.09218c-1.2888.27654-2.3019.55222-3.8673.73658-.55222.55223-.55222 3.4994 0 4.1438 1.0131 0 6.3536-.27655 10.774-.27655 6.077 0 9.2077.27655 10.773.27655.64442-.73658.82879-3.4994.46004-4.1438-1.7497-.09218-3.0385-.27568-4.2351-.6444-1.6575-.36871-2.1184-1.1966-2.2106-3.1307-.18349-4.8804-.18349-15.193-.18349-22.19 0-1.9341.55222-2.855 1.1045-3.4072 2.1176-1.841 5.5248-3.1307 8.5633-3.1307 2.9463 0 4.8804.92094 6.3535 2.1184 2.0254 1.6567 2.6698 4.0508 2.9463 5.8005.46003 3.9594.27653 11.786.27653 18.6 0 3.6829-.27653 4.6038-1.6575 5.0639-.64442.27654-2.3019.64526-4.236.82876-.64441.6444-.46004 3.4994 0 4.1438 2.6706 0 5.8013-.27654 10.405-.27654 5.7083 0 9.392.27654 10.865.27654.46006-.55222.6444-3.2229.27569-3.9594zm25.506-35.173c-4.8804 0-7.9189 3.7751-7.9189 9.6677 0 5.9848 2.6698 12.891 10.221 12.891 1.2888 0 3.6829-.55223 4.7873-1.841 1.7497-1.6575 2.9472-4.9726 2.9472-8.4711 0-7.6423-3.7759-12.246-10.036-12.246zm-.64527 40.698c-1.841 0-3.1307.55223-3.9586 1.0131-3.8681 2.4854-5.617 4.8795-5.617 7.7345 0 2.6698 1.0122 4.7874 3.2228 6.6292 2.6698 2.3019 6.3527 3.4072 11.049 3.4072 9.392 0 13.536-5.0647 13.536-10.036 0-3.4994-1.7497-5.8013-5.3404-7.0901-2.5785-1.1053-7.2745-1.6575-12.891-1.6575zm.64527 23.94c-5.617 0-9.6686-1.1975-13.167-3.8673-3.4072-2.5785-4.8804-6.4457-4.8804-9.1155 0-.73658.18437-2.7628 1.8419-4.6038 1.0122-1.1053 3.222-3.2229 8.4711-6.8136.18348-.09218.27568-.18437.27568-.36871 0-.18437-.18437-.36872-.36785-.46004-4.3282-1.6575-5.617-4.3282-5.9857-5.8013v-.18437c-.0913-.55222-.27569-1.1044.55307-1.6575.6444-.46003 1.5654-1.0123 2.5776-1.6567 1.5653-.92094 3.2229-1.9341 4.236-2.7628.18458-.18438.18458-.36786.18458-.55222 0-.18438-.18458-.36872-.36872-.46004-6.4449-2.1184-9.6677-6.9066-9.6677-14.088 0-4.696 2.1176-8.932 5.8927-11.602 2.5784-2.0262 9.0233-4.5117 13.259-4.5117h.27655c4.3273.09131 6.7214 1.0123 10.128 2.2097 1.8419.6444 3.5916.92008 5.9857.92008 3.5907 0 5.1561-1.1044 6.4449-2.3932.0922.18349.27652.6444.3687 1.841.0922 1.1975-.27654 2.9463-1.1975 4.236-.73659 1.0123-2.3933 1.7497-4.0507 1.7497h-.4609c-1.6576-.18437-2.3941-.36872-2.3941-.36872l-.36789.18438c-.0922.18438 0 .36786.0922.6444l.0922.18438c.18349.82876.55219 3.3142.55219 3.9594 0 7.5502-3.0385 10.864-6.2614 13.351-3.1307 2.3019-6.7214 3.7751-10.773 4.1438-.0922 0-.46005 0-1.2888.09218-.46088 0-1.1053.09218-1.1975.09218h-.0919c-.7366.18349-2.5776 1.1044-2.5776 2.6698 0 1.381.82873 3.0385 4.7873 3.315.82879.09218 1.6576.09218 2.5785.18437 5.2482.36786 11.786.82875 14.825 1.841 4.2351 1.5653 6.9058 5.3404 6.9058 9.853 0 6.8136-4.8804 13.167-12.983 17.126-3.9594 1.7497-7.9189 2.6706-12.246 2.6706zm52.484-64.178c-1.9341 0-3.6838.46004-4.9726 1.381-3.5908 2.2097-5.4326 6.6301-5.4326 13.075 0 12.063 6.077 20.534 14.732 20.534 2.5784 0 4.6038-.73658 6.3535-2.2097 2.6698-2.2106 4.0516-6.6301 4.0516-12.799 0-11.97-5.9857-19.981-14.732-19.981zm1.6575 39.409c-15.653 0-21.27-11.51-21.27-22.283 0-7.5502 3.0385-13.351 9.1155-17.495 4.3282-2.6698 9.4842-4.1429 14.088-4.1429 11.97 0 20.349 8.5633 20.349 20.902 0 8.3789-3.315 15.008-9.6686 19.06-3.0385 2.0254-8.2867 3.9594-12.615 3.9594zm-164.08-39.409c-1.9341 0-3.6829.46004-4.9726 1.381-3.5907 2.2097-5.4326 6.6301-5.4326 13.075 0 12.063 6.077 20.534 14.733 20.534 2.5785 0 4.6039-.73658 6.3536-2.2097 2.6698-2.2106 4.0516-6.6301 4.0516-12.799 0-11.97-5.8935-19.981-14.732-19.981zm1.6575 39.409c-15.653 0-21.27-11.51-21.27-22.283 0-7.5502 3.0385-13.351 9.1155-17.495 4.3282-2.6698 9.4843-4.1429 14.088-4.1429 11.971 0 20.349 8.5633 20.349 20.902 0 8.3789-3.315 15.008-9.6686 19.06-2.9463 2.0254-8.1946 3.9594-12.614 3.9594zm-105.24-.92095c-.18437-.27568-.36872-1.1044-.27654-2.1176 0-.73658.18437-1.1975.27654-1.381 1.9332-.27654 2.9463-.55309 4.0508-.82877 1.8419-.4609 2.5785-1.4732 2.6706-3.7751.27654-5.5248.27654-16.022.18438-23.296v-.18438c0-.82876 0-1.8419-1.0131-2.5785-1.4732-.92008-3.2229-1.7488-5.5248-2.3941-.82876-.27568-1.381-.73658-1.2888-1.2888 0-.55222.55222-1.1966 1.7497-1.381 3.0385-.27654 10.957-2.2097 14.087-3.5907.18437.18349.4609.73658.4609 1.4732l-.09217 1.0123c-.09217 1.0131-.18438 2.2106-.18438 3.4072 0 .36786.36872.6444.73658.6444.18437 0 .36872-.09217.55308-.18438 5.8926-4.6038 11.233-6.2614 13.995-6.2614 4.5125 0 8.0111 2.1184 10.682 6.5379.18349.27654.36786.36786.6444.36786.18438 0 .46004-.09132.55223-.27568 5.4326-4.1438 10.865-6.6301 14.456-6.6301 8.5633 0 13.628 6.3535 13.628 17.127 0 3.0385 0 6.998-.0921 10.59 0 3.222-.0921 6.1692-.0921 8.2868 0 .46004.6444 1.9332 1.6575 2.2097 1.2888.6444 3.0385.92095 5.3404 1.2888h.09229c.1844.6444-.1844 3.0385-.55224 3.4994-.55306 0-1.3818 0-2.3019-.09218-1.7497-.09218-4.236-.18437-6.998-.18437-5.7091 0-8.6555.09218-11.51.27655-.18349-.73658-.27567-2.9463 0-3.4994 1.6575-.27568 2.4863-.55221 3.4994-.82876 1.8419-.55222 2.3019-1.381 2.3941-3.7751 0-1.7488.36788-16.666-.1844-20.257-.55222-3.6829-3.315-8.0102-9.392-8.0102-2.3019 0-5.8926.92094-9.3921 3.5907-.18349.18437-.36787.6444-.36787.92094v.09217c.36787 1.9332.36787 4.1438.36787 7.5502v5.9848c0 4.1438-.09218 8.0111 0 10.957 0 2.0262 1.1975 2.4863 2.2106 2.855.55222.0913.92008.18349 1.381.27568.82876.18437 1.6575.36872 2.9463.6444.18438.36872.18438 1.5653-.09218 2.5785-.09218.55222-.27655.82875-.36786.92094-3.1307-.09218-6.3535-.18438-11.05-.18438-1.381 0-3.7751.09218-5.8013.09218-1.6575 0-3.2229.09218-4.1429.09218-.09218-.18437-.27653-.82877-.27653-1.8419 0-.82875.18437-1.4732.36872-1.6575.46003-.09218.8279-.18349 1.2888-.18349 1.1044-.18438 2.0254-.36871 2.9463-.55307 1.5653-.46004 2.1176-1.2888 2.2097-3.3142.27654-4.6038.55222-17.771-.09218-21.086-1.1044-5.3404-4.1429-8.0111-9.0233-8.0111-2.8541 0-6.4457 1.381-9.3921 3.5916-.46004.36786-.82876 1.2888-.82876 2.1176v5.4326c0 6.6292 0 14.917.09217 18.508.09217 1.1044.46004 2.3941 2.5785 2.8541.46004.09218 1.1966.27654 2.1176.36872l1.6575.27568c.18438.55308.09218 2.7628-.27654 3.4994-.92095 0-2.0254-.09218-3.315-.09218-1.9332-.09218-4.4195-.18438-7.1814-.18438-3.2229 0-5.5248.09218-7.3667.18438-1.2888-.18438-2.3019-.18438-3.4064-.18438z" fill="#8f88fe"/><g transform="translate(1.0744 98.975)"><path d="m35.053 142.32-3.7834-1.2925s.46192-19.287-6.4591-20.671c-4.614-5.3522.73821-227.01 17.348-.73821 0 0-5.7209 2.8605-6.7363 7.7517-1.1078 4.7988-.36954 14.95-.36954 14.95z" fill="#8f88fe"/><path d="m35.053 142.32-3.7834-1.2925s.46192-19.287-6.4591-20.671c-4.614-5.3522.73821-227.01 17.348-.73821 0 0-5.7209 2.8605-6.7363 7.7517-1.1078 4.7988-.36954 14.95-.36954 14.95z" fill="#8f88fe"/><path d="m37.084 123.68s33.129-21.779 25.377-67.089c-7.4745-32.944-25.101-43.741-27.038-47.894-2.1223-2.9528-4.153-8.1203-4.153-8.1203l1.3849 91.635c0 .09238-2.8613 28.054 4.4293 31.469" fill="#8f88fe"/><path d="m37.084 123.68s33.129-21.779 25.377-67.089c-7.4745-32.944-25.101-43.741-27.038-47.894-2.1223-2.9528-4.153-8.1203-4.153-8.1203l1.3849 91.635c0 .09238-2.8613 28.054 4.4293 31.469" fill="#8f88fe"/><path d="m29.333 124.88s-31.099-21.225-29.253-58.599c1.7527-37.374 23.716-55.738 27.961-59.06 2.7689-2.9528 2.8613-4.0606 3.0461-7.0135 1.9375 4.153 1.5688 62.106 1.8451 68.934.8306 26.3-1.4764 50.755-3.5987 55.738z" fill="#8f88fe"/><path d="m29.333 124.88s-31.099-21.225-29.253-58.599c1.7527-37.374 23.716-55.738 27.961-59.06 2.7689-2.9528 2.8613-4.0606 3.0461-7.0135 1.9375 4.153 1.5688 62.106 1.8451 68.934.8306 26.3-1.4764 50.755-3.5987 55.738z" fill="#8f88fe"/></g></g></svg>