<svg version="1.2" xmlns="http://www.w3.org/2000/svg" viewBox="0 0 1602 404" width="1602" height="404">
	<title>kuyjf3vea2hg34taa-horizontal_default_slate_blue-svg</title>
	<style>
		.s0 { fill: #fff } 
	</style>
	<path id="Layer" fill-rule="evenodd" class="s0" d="m98.3 328.9l-1.3 1c-1.1 18-4 43.6-4 43.6h-11.7c0 0-2.9-25.7-4-43.6l-1.3-0.9c0 0-155.8-115.8-21.2-287.4 15.7-18.6 29.2-37.5 31.9-41.4 0.3-0.3 0.7-0.3 1 0 2.8 3.9 16.3 22.8 32 41.4 134.6 171.6-21.2 287.4-21.4 287.3zm-2.3-11.5v-0.3l-8.4-186.8c0-0.6-0.9-0.6-0.9 0l-8.4 186.8v0.3c1.9 3 8.9 9 8.9 9 0 0 6.9-6 8.8-9z"/>
	<path id="Layer" class="s0" d="m443.6 129.3h49.2v10.7l-8.4 0.1c-5 0.2-9.1 4.3-9.1 9.4l0.5 159.5c0.1 5 4.2 9.2 9.2 9.2h7.8v10.5h-57.6v-10.5h5.2c5.1-0.1 9.2-4.2 9.2-9.3l-1-146.6-69.2 166.4c-1 2.5-3.3 4.1-5.9 4.1-2.7 0-5-1.6-6-4.1l-70.8-170.2v150.4c0 4.9 4.1 9 9.1 9.2l5.1 0.1v10.5h-49.2v-10.5l8.3-0.1c4.9-0.2 9-4.3 9-9.2l1.4-159.6c0-2.4-0.8-4.8-2.6-6.5-1.7-1.8-4-2.8-6.5-2.8h-8.2v-10.7h50.5l0.2 0.5 64.9 158.5z"/>
	<path id="Layer" class="s0" d="m837.3 317.6h5.9v10.7h-53.5v-10.7h5.9c2.6 0 4.8-0.9 6.4-2.5 1.6-1.6 2.5-3.8 2.5-6.4v-75.4c0-10-2.5-18.3-7.3-24.8-4.8-6.4-12.6-9.6-22.8-9.6-9 0-16.9 2.3-23.5 7.2-6.5 4.8-11.5 11.1-14.9 18.5-3.2 7.6-4.9 15.4-4.9 23.1v61.1c0 2.7 0.9 4.9 2.5 6.5 1.6 1.6 3.8 2.5 6.4 2.5h5.8v10.6h-53.4v-10.6h5.8c2.7 0 4.9-0.9 6.5-2.5 1.6-1.6 2.4-3.8 2.4-6.5v-92.2c0-3.1-0.8-5.3-2.4-6.7-1.6-1.5-4-2.2-6.7-2.2h-6v-7.3l23.2-13.3h9l5.4 20.9c0 0.4 0.3 0.7 0.8 0.7 0.4 0 0.8-0.2 1-0.4 11.5-16.7 28-25.2 48.9-25.2 14.8 0 26.8 4.2 35.4 12.6 8.8 8.3 13.2 20 13.2 34.9v78.4c0 2.6 0.8 4.8 2.4 6.4 1.8 1.6 3.8 2.5 6 2.2z"/>
	<path id="Layer" fill-rule="evenodd" class="s0" d="m1354.8 175.9c8.7 15 13.2 32.8 13.2 53.1 0 20.4-4.5 38.3-13.2 53.2-8.7 14.8-20.7 26.4-35.5 34.3-14.7 7.9-31.2 11.9-49.1 11.9h-69.4v-10.6h6.8c2.6 0 5-1.2 7.2-3.3 2.2-2.2 3.3-4.7 3.3-7.3v-156.6c0-2.6-1.1-5.1-3.3-7.3-2.3-2.3-4.6-3.3-7.2-3.3h-6.8v-10.7h69.4c17.9 0 34.4 4.1 49.1 12 14.8 8 26.7 19.5 35.5 34.6zm-24.6 5.7c-6.5-12.7-15.2-22.1-25.9-28.2-10.7-6.2-22.6-9.2-35.4-9.2h-14c-2.6 0-5.1 1.1-7.2 3.3-2.3 2.4-3.4 4.7-3.4 7.3v147.7c0 2.6 1.2 5.1 3.4 7.3 2.3 2.3 4.6 3.4 7.2 3.4h14c12.8 0 24.7-3.1 35.4-9.2 10.7-6.1 19.4-15.6 25.9-28.3 6.5-12.6 9.8-28.3 9.8-47 0-18.4-3.3-34.3-9.8-47.1z"/>
	<path id="Layer" fill-rule="evenodd" class="s0" d="m1543.9 272c0 11.9-3.3 22.2-9.7 30.7-6.3 8.4-15 14.8-26 19.2-10.9 4.3-23 6.5-36 6.5h-85.4v-10.6h6.9c2.6 0 5.1-1.2 7.3-3.3 2.2-2.2 3.4-4.7 3.4-7.3v-156.6c0-2.6-1.2-5.1-3.4-7.3-2.3-2.3-4.7-3.3-7.3-3.3h-6.3v-10.7h78.7c12.5 0 23.6 2.2 33.1 6.4 9.5 4.3 16.9 10.4 22.2 17.9 5.2 7.6 7.9 16.5 7.9 26.4 0 18.2-10.4 32.3-30.5 42.3 14.6 3.4 27 9.6 33.4 17.1 7.7 8.8 11.5 19.8 11.7 32.6zm-102.3 41.2h29.9c9.5 0 17.6-2.1 24.2-6 6.7-3.9 11.7-9 15-15.4 3.2-6.3 5-13.1 5-20.1q0-17.5-11.4-28.4-11.4-10.9-32.8-10.9h-40.6v70.3c0 2.6 1.2 5.1 3.4 7.2 2.3 2.2 4.6 3.3 7.3 3.3zm23.5-95.8c11.9 0 21-3.4 27-9.9 5.9-6.7 9-15.6 9-26.6 0-10.8-3.2-19.5-9.6-26.4-6.5-6.7-16.7-10.2-30.5-10.2h-19.3c-2.6 0-5.1 1.2-7.3 3.4-2.3 2.3-3.3 4.6-3.3 7.3v62.4z"/>
	<path id="Layer" fill-rule="evenodd" class="s0" d="m654.5 218.5c6.5 11.2 9.9 24.2 9.9 38.7 0 14.5-3.4 27.6-9.9 38.7-6.5 11.2-15.3 20.1-26.5 26.2-11 6.2-23.6 9.2-37.1 9.2-13.4 0-25.9-3.2-37-9.2-11.2-6.1-20-15-26.5-26.2-6.5-11.1-9.9-24.2-9.9-38.7 0-14.5 3.4-27.5 9.9-38.7 6.5-11.2 15.3-20 26.5-26.1 11-6.2 23.6-9.3 37-9.3 13.5 0 26 3.2 37.1 9.3 11.2 6.1 20 14.9 26.5 26.1zm-28.8-4.1c-8.6-10.4-20.3-15.8-34.8-15.8-14.4 0-26.2 5.4-34.7 15.8-8.7 10.5-13 25-13 42.8 0 17.9 4.3 32.4 13 42.8 8.5 10.5 20.3 15.8 34.7 15.8 14.5 0 26.2-5.3 34.8-15.8 8.7-10.4 13-24.9 13-42.8 0-17.8-4.3-32.3-13-42.8z"/>
	<path id="Layer" fill-rule="evenodd" class="s0" d="m1167.7 218.5c6.5 11.2 9.8 24.2 9.8 38.7 0 14.5-3.3 27.6-9.8 38.7-6.5 11.2-15.4 20.1-26.5 26.2-11 6.2-23.6 9.2-37.1 9.2-13.5 0-25.9-3.2-37.1-9.2-11.1-6.1-20-15-26.5-26.2-6.5-11.1-9.8-24.2-9.8-38.7 0-14.5 3.3-27.5 9.8-38.7 6.5-11.2 15.4-20 26.5-26.1 11-6.2 23.6-9.3 37.1-9.3 13.5 0 25.9 3.2 37.1 9.3 11 6.1 20 14.9 26.5 26.1zm-28.8-4.1c-8.6-10.4-20.3-15.8-34.8-15.8-14.5 0-26.2 5.4-34.8 15.8-8.6 10.5-13 24.8-13 42.8 0 17.9 4.4 32.4 13 42.8 8.6 10.5 20.3 15.8 34.8 15.8 14.5 0 26.2-5.3 34.8-15.8 8.6-10.4 13-24.9 13-42.8 0-17.8-4.5-32.3-13-42.8z"/>
	<path id="Layer" fill-rule="evenodd" class="s0" d="m958.7 187h50.2v14.5l-31.4-3.5c0 0-0.1 0-0.1 0.1 14.3 10.1 19.5 29.7 19.5 40.5 0 10.1-2.7 19.5-8.3 28-5.5 8.6-13.3 15.3-22.9 20.3-9.6 4.9-20.7 7.4-32.9 7.4-4.4 0-8.4-0.3-11.9-1-3.3-0.8-7.1-1.9-11.2-3.8l-15.1 20.4c-0.2 0.1 0 0.4 0 0.4 0 0 0.1 0.2 0.2 0.2h58.4c17 0 30.7 3.6 39.5 10.4 10.2 8.2 14.6 16.7 14.6 28.6 0 11.4-3.7 21.3-10.8 29.4-7 8.2-16.5 14.5-28.2 18.7-11.5 4.2-24.2 6.4-37.4 6.4-19.1 0-34.3-3.9-45.1-11.7-10.9-7.7-16.5-18-16.5-30.6 0-6.7 1.9-13.2 5.7-19.5 3.2-5.5 7.9-10.2 13.7-14.1h-6c-4.3 0-8.1-2.3-10.2-6.3-1.9-3.8-1.6-8.4 1.1-11.9l20.8-28.3c-7-4.9-12.5-10.9-16.6-18.1-4.2-7.4-6.3-15.7-6.3-24.7 0-10.1 2.8-19.6 8.2-28 5.4-8.6 13-15.3 22.6-20.3q14.4-7.4 31.9-7.4c8.5 0 16.6 1.5 24.5 3.9zm6.7 73.9c3.7-5.8 5.4-13.2 5.4-22.1 0-8.8-1.9-16.2-5.4-22.2-3.6-6-8.1-10.5-13.7-13.4-5.5-3-11.4-4.5-17.5-4.5-9.8 0-18.4 3.5-25.6 10.3-7.3 6.9-11 16.9-11 29.8 0 12.8 3.7 22.8 11 29.7 7.2 6.8 15.8 10.3 25.6 10.3 6 0 12-1.6 17.5-4.5 5.6-2.9 10.2-7.4 13.7-13.4zm-66.5 78.8c-3.5 5.3-5.2 11.3-5.2 17.7 0 10.2 3.8 18.2 11.2 23.4 7.4 5.3 17.7 8 29.9 8 14 0 25.4-3.3 33.8-9.9 8.5-6.5 12.7-15.3 12.7-25.9 0-7.3-2.3-13.5-7-18.2-4.6-4.7-11.6-6.9-22.6-6.9h-39.5c-5.5 2.8-9.8 6.6-13.3 11.8z"/>
	<path id="Layer" fill-rule="evenodd" class="s0" d="m1573.4 326c-2.8-1.6-5-3.9-6.7-6.6-1.6-2.8-2.5-5.8-2.5-9.1 0-3.3 0.9-6.5 2.5-9.2 1.5-2.8 3.9-5 6.7-6.6 2.9-1.5 6.1-2.4 9.7-2.4 3.6 0 6.8 0.9 9.7 2.4 2.8 1.6 5 3.9 6.7 6.6 1.6 2.9 2.5 5.9 2.5 9.2 0 3.3-0.9 6.4-2.5 9.1-1.5 2.9-3.9 5-6.7 6.6-2.9 1.6-6.1 2.4-9.7 2.4-3.5 0-6.8-0.7-9.7-2.4zm17.8-2c2.4-1.3 4.2-3.3 5.6-5.6 1.3-2.4 2-5.1 2-8.1 0-3-0.7-5.8-2-8.2q-2-3.6-5.6-5.6c-2.5-1.3-5.1-2-8.1-2-3 0-5.6 0.7-8.1 2-2.4 1.3-4.2 3.3-5.6 5.6-1.3 2.4-2 5.2-2 8.2 0 3 0.7 5.7 2 8.1q2 3.7 5.6 5.6c2.5 1.3 5.1 2 8.1 2 3 0 5.8-0.7 8.1-2zm-15.9-5v-1.3l0.3-0.1h0.9c0.2 0 0.5-0.2 0.7-0.3 0.3-0.3 0.3-0.5 0.3-0.7v-13.3c0-0.3-0.2-0.6-0.3-0.8-0.3-0.2-0.5-0.2-0.7-0.2h-0.9l-0.3-0.2v-1.3l0.3-0.1h7.5c2.2 0 3.8 0.4 5 1.4 1.4 1 1.9 2.3 1.9 4 0 1.3-0.4 2.6-1.4 3.5-1 1-2.2 1.5-3.6 1.7l1.7 0.5 3.3 5.3c0.3 0.5 0.6 0.6 1 0.6h0.9l0.1 0.1v1.3l-0.1 0.2h-4.5l-0.3-0.2-4.6-7.7h-1.1v5.2c0 0.2 0.1 0.5 0.3 0.7 0.3 0.3 0.4 0.3 0.7 0.3h0.8l0.3 0.1v1.3l-0.3 0.1h-7.6zm7.4-9.4c1.1 0 2.1-0.3 2.7-1 0.6-0.6 1-1.6 1-2.7 0-1.2-0.3-2-0.9-2.7-0.5-0.8-1.4-1-2.4-1h-0.6c-0.3 0-0.6 0.1-0.7 0.2-0.3 0.3-0.3 0.5-0.3 0.8v6.4z"/>
</svg>